<?xml version="1.0" encoding="UTF-8" standalone="no"?>
<!DOCTYPE svg PUBLIC "-//W3C//DTD SVG 1.1//EN"
 "http://www.w3.org/Graphics/SVG/1.1/DTD/svg11.dtd">
<!-- Generated by graphviz version 9.0.0 (20230911.1827)
 -->
<!-- Pages: 1 -->
<svg width="239pt" height="291pt"
 viewBox="0.00 0.00 238.63 290.96" xmlns="http://www.w3.org/2000/svg" xmlns:xlink="http://www.w3.org/1999/xlink">
<g id="graph0" class="graph" transform="scale(1 1) rotate(0) translate(4 286.96)">
<polygon fill="white" stroke="none" points="-4,4 -4,-286.96 234.63,-286.96 234.63,4 -4,4"/>
<!-- jqt -->
<g id="node1" class="node">
<title>jqt</title>
<ellipse fill="none" stroke="black" cx="97.04" cy="-42.12" rx="27" ry="18"/>
<text text-anchor="middle" x="97.04" y="-37.07" font-family="Times,serif" font-size="14.00">jqt</text>
</g>
<!-- rhn -->
<g id="node2" class="node">
<title>rhn</title>
<ellipse fill="none" stroke="black" cx="180.31" cy="-21.44" rx="27" ry="18"/>
<text text-anchor="middle" x="180.31" y="-16.39" font-family="Times,serif" font-size="14.00">rhn</text>
</g>
<!-- jqt&#45;&gt;rhn -->
<g id="edge1" class="edge">
<title>jqt&#45;&gt;rhn</title>
<path fill="none" stroke="black" d="M122.48,-35.8C129.19,-34.14 136.58,-32.3 143.75,-30.52"/>
<polygon fill="black" stroke="black" points="144.41,-33.96 153.27,-28.16 142.72,-27.17 144.41,-33.96"/>
</g>
<!-- xhk -->
<g id="node3" class="node">
<title>xhk</title>
<ellipse fill="none" stroke="black" cx="141.29" cy="-18" rx="27" ry="18"/>
<text text-anchor="middle" x="141.29" y="-12.95" font-family="Times,serif" font-size="14.00">xhk</text>
</g>
<!-- jqt&#45;&gt;xhk -->
<g id="edge2" class="edge">
<title>jqt&#45;&gt;xhk</title>
<path fill="none" stroke="black" d="M118.39,-30.48C118.52,-30.41 118.65,-30.34 118.79,-30.27"/>
<polygon fill="black" stroke="black" points="111.55,-38.2 118.65,-30.34 108.2,-32.05 111.55,-38.2"/>
</g>
<!-- nvd -->
<g id="node4" class="node">
<title>nvd</title>
<ellipse fill="none" stroke="black" cx="67.53" cy="-119.95" rx="27" ry="18"/>
<text text-anchor="middle" x="67.53" y="-114.9" font-family="Times,serif" font-size="14.00">nvd</text>
</g>
<!-- jqt&#45;&gt;nvd -->
<g id="edge3" class="edge">
<title>jqt&#45;&gt;nvd</title>
<path fill="none" stroke="black" d="M90.35,-59.78C86.79,-69.17 82.33,-80.94 78.29,-91.57"/>
<polygon fill="black" stroke="black" points="75.11,-90.09 74.84,-100.68 81.66,-92.57 75.11,-90.09"/>
</g>
<!-- rhn&#45;&gt;xhk -->
<g id="edge12" class="edge">
<title>rhn&#45;&gt;xhk</title>
<path fill="none" stroke="black" d="M153.21,-19.05C153.15,-19.05 153.1,-19.04 153.05,-19.04"/>
<polygon fill="black" stroke="black" points="164.67,-16.56 154.4,-19.16 164.05,-23.53 164.67,-16.56"/>
</g>
<!-- hfx -->
<g id="node9" class="node">
<title>hfx</title>
<ellipse fill="none" stroke="black" cx="159.33" cy="-83.13" rx="27" ry="18"/>
<text text-anchor="middle" x="159.33" y="-78.08" font-family="Times,serif" font-size="14.00">hfx</text>
</g>
<!-- rhn&#45;&gt;hfx -->
<g id="edge13" class="edge">
<title>rhn&#45;&gt;hfx</title>
<path fill="none" stroke="black" d="M174.24,-39.28C172.64,-43.97 170.88,-49.16 169.14,-54.26"/>
<polygon fill="black" stroke="black" points="165.85,-53.09 165.94,-63.68 172.47,-55.34 165.85,-53.09"/>
</g>
<!-- bvb -->
<g id="node13" class="node">
<title>bvb</title>
<ellipse fill="none" stroke="black" cx="189.86" cy="-103.63" rx="27" ry="18"/>
<text text-anchor="middle" x="189.86" y="-98.58" font-family="Times,serif" font-size="14.00">bvb</text>
</g>
<!-- rhn&#45;&gt;bvb -->
<g id="edge14" class="edge">
<title>rhn&#45;&gt;bvb</title>
<path fill="none" stroke="black" d="M182.43,-39.68C183.6,-49.79 185.09,-62.61 186.43,-74.1"/>
<polygon fill="black" stroke="black" points="182.94,-74.41 187.57,-83.94 189.89,-73.6 182.94,-74.41"/>
</g>
<!-- xhk&#45;&gt;hfx -->
<g id="edge7" class="edge">
<title>xhk&#45;&gt;hfx</title>
<path fill="none" stroke="black" d="M146.31,-36.14C147.88,-41.79 149.64,-48.16 151.35,-54.35"/>
<polygon fill="black" stroke="black" points="147.88,-54.92 153.93,-63.63 154.63,-53.06 147.88,-54.92"/>
</g>
<!-- lhk -->
<g id="node12" class="node">
<title>lhk</title>
<ellipse fill="none" stroke="black" cx="27" cy="-177.47" rx="27" ry="18"/>
<text text-anchor="middle" x="27" y="-172.42" font-family="Times,serif" font-size="14.00">lhk</text>
</g>
<!-- nvd&#45;&gt;lhk -->
<g id="edge25" class="edge">
<title>nvd&#45;&gt;lhk</title>
<path fill="none" stroke="black" d="M55.81,-136.59C52.42,-141.4 48.64,-146.77 44.96,-151.99"/>
<polygon fill="black" stroke="black" points="42.33,-149.65 39.43,-159.84 48.05,-153.68 42.33,-149.65"/>
</g>
<!-- rsh -->
<g id="node5" class="node">
<title>rsh</title>
<ellipse fill="none" stroke="black" cx="159.32" cy="-247.81" rx="27" ry="18"/>
<text text-anchor="middle" x="159.32" y="-242.76" font-family="Times,serif" font-size="14.00">rsh</text>
</g>
<!-- frs -->
<g id="node6" class="node">
<title>frs</title>
<ellipse fill="none" stroke="black" cx="51.68" cy="-264.96" rx="27" ry="18"/>
<text text-anchor="middle" x="51.68" y="-259.91" font-family="Times,serif" font-size="14.00">frs</text>
</g>
<!-- rsh&#45;&gt;frs -->
<g id="edge4" class="edge">
<title>rsh&#45;&gt;frs</title>
<path fill="none" stroke="black" d="M132.71,-252.05C119.64,-254.13 103.67,-256.68 89.37,-258.95"/>
<polygon fill="black" stroke="black" points="89.17,-255.44 79.85,-260.47 90.27,-262.35 89.17,-255.44"/>
</g>
<!-- pzl -->
<g id="node7" class="node">
<title>pzl</title>
<ellipse fill="none" stroke="black" cx="155.67" cy="-166.39" rx="27" ry="18"/>
<text text-anchor="middle" x="155.67" y="-161.34" font-family="Times,serif" font-size="14.00">pzl</text>
</g>
<!-- rsh&#45;&gt;pzl -->
<g id="edge5" class="edge">
<title>rsh&#45;&gt;pzl</title>
<path fill="none" stroke="black" d="M158.49,-229.34C158.05,-219.55 157.5,-207.29 157.01,-196.2"/>
<polygon fill="black" stroke="black" points="160.51,-196.14 156.56,-186.3 153.52,-196.45 160.51,-196.14"/>
</g>
<!-- lsr -->
<g id="node8" class="node">
<title>lsr</title>
<ellipse fill="none" stroke="black" cx="97" cy="-222.05" rx="27" ry="18"/>
<text text-anchor="middle" x="97" y="-217" font-family="Times,serif" font-size="14.00">lsr</text>
</g>
<!-- rsh&#45;&gt;lsr -->
<g id="edge6" class="edge">
<title>rsh&#45;&gt;lsr</title>
<path fill="none" stroke="black" d="M136.12,-238.22C134.31,-237.47 132.46,-236.71 130.6,-235.94"/>
<polygon fill="black" stroke="black" points="132,-232.73 121.42,-232.14 129.32,-239.2 132,-232.73"/>
</g>
<!-- frs&#45;&gt;lsr -->
<g id="edge31" class="edge">
<title>frs&#45;&gt;lsr</title>
<path fill="none" stroke="black" d="M67.53,-249.95C69.32,-248.26 71.16,-246.51 73.02,-244.76"/>
<polygon fill="black" stroke="black" points="75.13,-247.58 79.98,-238.16 70.32,-242.49 75.13,-247.58"/>
</g>
<!-- qnr -->
<g id="node11" class="node">
<title>qnr</title>
<ellipse fill="none" stroke="black" cx="50.27" cy="-200.07" rx="27" ry="18"/>
<text text-anchor="middle" x="50.27" y="-195.02" font-family="Times,serif" font-size="14.00">qnr</text>
</g>
<!-- frs&#45;&gt;qnr -->
<g id="edge32" class="edge">
<title>frs&#45;&gt;qnr</title>
<path fill="none" stroke="black" d="M51.28,-246.54C51.16,-241.29 51.04,-235.43 50.91,-229.69"/>
<polygon fill="black" stroke="black" points="54.41,-229.75 50.7,-219.83 47.42,-229.9 54.41,-229.75"/>
</g>
<!-- frs&#45;&gt;lhk -->
<g id="edge33" class="edge">
<title>frs&#45;&gt;lhk</title>
<path fill="none" stroke="black" d="M46.57,-246.83C43.29,-235.22 38.96,-219.89 35.21,-206.59"/>
<polygon fill="black" stroke="black" points="38.6,-205.71 32.52,-197.03 31.86,-207.61 38.6,-205.71"/>
</g>
<!-- pzl&#45;&gt;nvd -->
<g id="edge17" class="edge">
<title>pzl&#45;&gt;nvd</title>
<path fill="none" stroke="black" d="M134.34,-155.15C123.7,-149.54 110.62,-142.66 98.87,-136.46"/>
<polygon fill="black" stroke="black" points="100.8,-133.52 90.32,-131.96 97.53,-139.71 100.8,-133.52"/>
</g>
<!-- pzl&#45;&gt;lsr -->
<g id="edge18" class="edge">
<title>pzl&#45;&gt;lsr</title>
<path fill="none" stroke="black" d="M139.95,-181.3C134.16,-186.79 127.47,-193.15 121.11,-199.18"/>
<polygon fill="black" stroke="black" points="118.71,-196.63 113.87,-206.05 123.53,-201.71 118.71,-196.63"/>
</g>
<!-- pzl&#45;&gt;hfx -->
<g id="edge19" class="edge">
<title>pzl&#45;&gt;hfx</title>
<path fill="none" stroke="black" d="M156.48,-147.91C156.93,-137.67 157.5,-124.69 158.01,-113.04"/>
<polygon fill="black" stroke="black" points="161.51,-113.21 158.45,-103.07 154.52,-112.91 161.51,-113.21"/>
</g>
<!-- lsr&#45;&gt;lhk -->
<g id="edge26" class="edge">
<title>lsr&#45;&gt;lhk</title>
<path fill="none" stroke="black" d="M77.13,-209.39C70.57,-205.22 63.14,-200.48 56.04,-195.96"/>
<polygon fill="black" stroke="black" points="58.27,-193.24 47.96,-190.82 54.51,-199.14 58.27,-193.24"/>
</g>
<!-- cmg -->
<g id="node10" class="node">
<title>cmg</title>
<ellipse fill="none" stroke="black" cx="107.43" cy="-158.96" rx="27.3" ry="18"/>
<text text-anchor="middle" x="107.43" y="-153.91" font-family="Times,serif" font-size="14.00">cmg</text>
</g>
<!-- cmg&#45;&gt;nvd -->
<g id="edge8" class="edge">
<title>cmg&#45;&gt;nvd</title>
<path fill="none" stroke="black" d="M92.12,-143.99C91.75,-143.63 91.37,-143.26 90.99,-142.89"/>
<polygon fill="black" stroke="black" points="93.68,-140.62 84.08,-136.14 88.79,-145.63 93.68,-140.62"/>
</g>
<!-- cmg&#45;&gt;qnr -->
<g id="edge9" class="edge">
<title>cmg&#45;&gt;qnr</title>
<path fill="none" stroke="black" d="M88.72,-172.42C85.32,-174.86 81.72,-177.45 78.14,-180.03"/>
<polygon fill="black" stroke="black" points="76.14,-177.16 70.06,-185.84 80.22,-182.84 76.14,-177.16"/>
</g>
<!-- cmg&#45;&gt;lhk -->
<g id="edge10" class="edge">
<title>cmg&#45;&gt;lhk</title>
<path fill="none" stroke="black" d="M81.54,-164.92C75.94,-166.21 69.92,-167.6 63.99,-168.96"/>
<polygon fill="black" stroke="black" points="63.28,-165.53 54.32,-171.19 64.85,-172.35 63.28,-165.53"/>
</g>
<!-- cmg&#45;&gt;bvb -->
<g id="edge11" class="edge">
<title>cmg&#45;&gt;bvb</title>
<path fill="none" stroke="black" d="M126.97,-145.85C137.13,-139.03 149.75,-130.56 161.02,-123"/>
<polygon fill="black" stroke="black" points="162.86,-125.97 169.21,-117.49 158.96,-120.16 162.86,-125.97"/>
</g>
<!-- qnr&#45;&gt;nvd -->
<g id="edge20" class="edge">
<title>qnr&#45;&gt;nvd</title>
<path fill="none" stroke="black" d="M54.18,-181.89C56.26,-172.26 58.86,-160.2 61.21,-149.29"/>
<polygon fill="black" stroke="black" points="64.63,-150.05 63.31,-139.54 57.78,-148.58 64.63,-150.05"/>
</g>
<!-- bvb&#45;&gt;xhk -->
<g id="edge15" class="edge">
<title>bvb&#45;&gt;xhk</title>
<path fill="none" stroke="black" d="M180.27,-86.71C173.52,-74.83 164.36,-58.68 156.62,-45.02"/>
<polygon fill="black" stroke="black" points="159.76,-43.46 151.78,-36.49 153.67,-46.92 159.76,-43.46"/>
</g>
<!-- bvb&#45;&gt;hfx -->
<g id="edge16" class="edge">
<title>bvb&#45;&gt;hfx</title>
<path fill="none" stroke="black" d="M170.7,-90.76C170.65,-90.73 170.6,-90.7 170.55,-90.67"/>
<polygon fill="black" stroke="black" points="181.92,-94.09 171.67,-91.42 178.02,-99.9 181.92,-94.09"/>
</g>
<!-- ntq -->
<g id="node14" class="node">
<title>ntq</title>
<ellipse fill="none" stroke="black" cx="203.63" cy="-44.6" rx="27" ry="18"/>
<text text-anchor="middle" x="203.63" y="-39.55" font-family="Times,serif" font-size="14.00">ntq</text>
</g>
<!-- ntq&#45;&gt;jqt -->
<g id="edge21" class="edge">
<title>ntq&#45;&gt;jqt</title>
<path fill="none" stroke="black" d="M176.18,-43.96C163.87,-43.67 149.14,-43.33 135.74,-43.02"/>
<polygon fill="black" stroke="black" points="135.99,-39.53 125.91,-42.79 135.83,-46.52 135.99,-39.53"/>
</g>
<!-- ntq&#45;&gt;xhk -->
<g id="edge22" class="edge">
<title>ntq&#45;&gt;xhk</title>
<path fill="none" stroke="black" d="M180.41,-34.7C178.61,-33.92 176.76,-33.14 174.9,-32.34"/>
<polygon fill="black" stroke="black" points="176.28,-29.12 165.7,-28.42 173.53,-35.56 176.28,-29.12"/>
</g>
<!-- ntq&#45;&gt;hfx -->
<g id="edge23" class="edge">
<title>ntq&#45;&gt;hfx</title>
<path fill="none" stroke="black" d="M186.88,-59.17C186.11,-59.84 185.33,-60.52 184.54,-61.2"/>
<polygon fill="black" stroke="black" points="182.49,-58.35 177.24,-67.55 187.08,-63.63 182.49,-58.35"/>
</g>
<!-- ntq&#45;&gt;bvb -->
<g id="edge24" class="edge">
<title>ntq&#45;&gt;bvb</title>
<path fill="none" stroke="black" d="M199.42,-62.63C198.54,-66.41 197.59,-70.48 196.65,-74.54"/>
<polygon fill="black" stroke="black" points="193.25,-73.7 194.39,-84.24 200.07,-75.29 193.25,-73.7"/>
</g>
<!-- rzs -->
<g id="node15" class="node">
<title>rzs</title>
<ellipse fill="none" stroke="black" cx="115.4" cy="-257.31" rx="27" ry="18"/>
<text text-anchor="middle" x="115.4" y="-252.26" font-family="Times,serif" font-size="14.00">rzs</text>
</g>
<!-- rzs&#45;&gt;rsh -->
<g id="edge27" class="edge">
<title>rzs&#45;&gt;rsh</title>
<path fill="none" stroke="black" d="M141.45,-251.68C141.53,-251.66 141.6,-251.64 141.68,-251.63"/>
<polygon fill="black" stroke="black" points="131.38,-257.44 140.42,-251.9 129.9,-250.6 131.38,-257.44"/>
</g>
<!-- rzs&#45;&gt;lsr -->
<g id="edge28" class="edge">
<title>rzs&#45;&gt;lsr</title>
<path fill="none" stroke="black" d="M106.42,-240.09C106.34,-239.95 106.27,-239.81 106.2,-239.67"/>
<polygon fill="black" stroke="black" points="114.41,-247.84 106.68,-240.6 108.2,-251.08 114.41,-247.84"/>
</g>
<!-- rzs&#45;&gt;cmg -->
<g id="edge29" class="edge">
<title>rzs&#45;&gt;cmg</title>
<path fill="none" stroke="black" d="M113.94,-239.27C112.79,-225.08 111.16,-205.02 109.82,-188.49"/>
<polygon fill="black" stroke="black" points="113.33,-188.41 109.03,-178.73 106.35,-188.98 113.33,-188.41"/>
</g>
<!-- rzs&#45;&gt;qnr -->
<g id="edge30" class="edge">
<title>rzs&#45;&gt;qnr</title>
<path fill="none" stroke="black" d="M98.96,-242.87C91.84,-236.61 83.35,-229.15 75.46,-222.22"/>
<polygon fill="black" stroke="black" points="77.88,-219.68 68.06,-215.71 73.26,-224.94 77.88,-219.68"/>
</g>
</g>
</svg>
